<svg version="1.1" xmlns="http://www.w3.org/2000/svg" xmlns:xlink="http://www.w3.org/1999/xlink" width="1024px" height="1024px" viewBox="0,0,256,256"><g fill="#ffffff" fill-rule="nonzero" stroke="none" stroke-width="1" stroke-linecap="butt" stroke-linejoin="miter" stroke-miterlimit="10" stroke-dasharray="" stroke-dashoffset="0" font-family="none" font-weight="none" font-size="none" text-anchor="none" style="mix-blend-mode: normal"><g transform="translate(-0.25909,-0.31142) scale(0.25,0.25)"><path d="M683.6,288.4l-21.2,26.2c-12,14.8 -2.6,36.9 16.3,38.7l165.9,15.4c21.9,2 38.8,-18.8 32.3,-39.8l-49.6,-159c-5.7,-18.2 -29.3,-22.7 -41.2,-7.9l-32.9,40.6c-85.1,-62.9 -194.4,-89.5 -305.7,-67.7c-157.5,30.8 -281.4,160.7 -304.8,319.5c-35.4,239.2 149.1,444.7 381.5,444.7c159.8,0 301.2,-98 358.9,-243.9c9.3,-23.4 4.8,-51.5 -15.1,-66.9c-31.2,-24.2 -73.4,-10.4 -86.3,23.3c-48.2,126.3 -183.8,203.5 -325.3,169.1c-104.1,-25.4 -185.4,-112.7 -203.6,-218.3c-30,-173.9 103.1,-324.7 271.4,-324.7c58.2,-0.1 113.5,18.1 159.4,50.7z"></path></g></g></svg>